<svg id="svg" version="1.1" xmlns="http://www.w3.org/2000/svg" xmlns:xlink="http://www.w3.org/1999/xlink" width="24" height="24" viewBox="0, 0, 400,400"><g id="svgg"><path id="path0" d="M187.500 51.563 L 187.500 59.375 190.625 59.375 L 193.750 59.375 193.750 51.563 L 193.750 43.750 190.625 43.750 L 187.500 43.750 187.500 51.563 M196.875 46.875 L 196.875 50.000 204.688 50.000 L 212.500 50.000 212.500 46.875 L 212.500 43.750 204.688 43.750 L 196.875 43.750 196.875 46.875 M206.250 57.813 L 206.250 62.500 212.500 62.500 L 218.750 62.500 218.750 70.313 L 218.750 78.125 221.875 78.125 L 225.000 78.125 225.000 70.313 L 225.000 62.500 221.875 62.500 L 218.750 62.500 218.750 59.375 L 218.750 56.250 215.625 56.250 L 212.500 56.250 212.500 54.688 L 212.500 53.125 209.375 53.125 L 206.250 53.125 206.250 57.813 M175.000 65.625 L 175.000 75.000 178.125 75.000 L 181.250 75.000 181.250 68.750 L 181.250 62.500 182.813 62.500 L 184.375 62.500 184.375 59.375 L 184.375 56.250 179.688 56.250 L 175.000 56.250 175.000 65.625 M84.375 79.688 L 84.375 87.500 87.500 87.500 L 90.625 87.500 90.625 82.813 L 90.625 78.125 92.188 78.125 L 93.750 78.125 93.750 75.000 L 93.750 71.875 89.063 71.875 L 84.375 71.875 84.375 79.688 M96.875 75.000 L 96.875 78.125 100.000 78.125 L 103.125 78.125 103.125 81.250 L 103.125 84.375 106.250 84.375 L 109.375 84.375 109.375 78.125 L 109.375 71.875 103.125 71.875 L 96.875 71.875 96.875 75.000 M291.016 78.125 L 291.016 84.375 294.141 84.375 L 297.266 84.375 297.266 81.250 L 297.266 78.125 300.391 78.125 L 303.516 78.125 303.516 75.000 L 303.516 71.875 297.266 71.875 L 291.016 71.875 291.016 78.125 M306.641 75.000 L 306.641 78.125 308.203 78.125 L 309.766 78.125 309.766 82.813 L 309.766 87.500 312.891 87.500 L 316.016 87.500 316.016 79.688 L 316.016 71.875 311.328 71.875 L 306.641 71.875 306.641 75.000 M221.020 75.082 C 221.151 76.213,220.518 77.734,219.916 77.734 C 219.381 77.734,219.014 75.949,219.308 74.779 C 219.644 73.440,220.855 73.654,221.020 75.082 M175.000 79.688 L 175.000 81.250 171.875 81.250 L 168.750 81.250 168.750 84.375 L 168.750 87.500 165.625 87.500 L 162.500 87.500 162.500 95.313 L 162.500 103.125 165.625 103.125 L 168.750 103.125 168.750 95.313 L 168.750 87.500 175.000 87.500 L 181.250 87.500 181.250 82.813 L 181.250 78.125 178.125 78.125 L 175.000 78.125 175.000 79.688 M221.875 84.375 L 221.875 87.500 226.563 87.500 L 231.250 87.500 231.250 89.063 L 231.250 90.625 234.375 90.625 L 237.500 90.625 237.500 85.938 L 237.500 81.250 229.688 81.250 L 221.875 81.250 221.875 84.375 M103.125 95.313 L 103.125 103.125 106.250 103.125 L 109.375 103.125 109.375 95.313 L 109.375 87.500 106.250 87.500 L 103.125 87.500 103.125 95.313 M291.016 95.313 L 291.016 103.125 294.141 103.125 L 297.266 103.125 297.266 95.313 L 297.266 87.500 294.141 87.500 L 291.016 87.500 291.016 95.313 M84.375 98.438 L 84.375 106.250 87.500 106.250 L 90.625 106.250 90.625 98.438 L 90.625 90.625 87.500 90.625 L 84.375 90.625 84.375 98.438 M309.766 98.438 L 309.766 106.250 312.891 106.250 L 316.016 106.250 316.016 98.438 L 316.016 90.625 312.891 90.625 L 309.766 90.625 309.766 98.438 M231.250 101.563 L 231.250 109.375 234.375 109.375 L 237.500 109.375 237.500 101.563 L 237.500 93.750 234.375 93.750 L 231.250 93.750 231.250 101.563 M103.125 114.063 L 103.125 121.875 106.250 121.875 L 109.375 121.875 109.375 114.063 L 109.375 106.250 106.250 106.250 L 103.125 106.250 103.125 114.063 M162.500 114.063 L 162.500 121.875 165.625 121.875 L 168.750 121.875 168.750 114.063 L 168.750 106.250 165.625 106.250 L 162.500 106.250 162.500 114.063 M291.016 114.063 L 291.016 121.875 292.103 121.875 C 292.898 121.875,293.738 121.320,295.228 119.812 L 297.266 117.749 297.266 111.999 L 297.266 106.250 294.141 106.250 L 291.016 106.250 291.016 114.063 M84.375 117.188 L 84.375 125.000 87.500 125.000 L 90.625 125.000 90.625 117.188 L 90.625 109.375 87.500 109.375 L 84.375 109.375 84.375 117.188 M309.766 117.188 L 309.766 125.000 312.891 125.000 L 316.016 125.000 316.016 117.188 L 316.016 109.375 312.891 109.375 L 309.766 109.375 309.766 117.188 M231.250 118.750 L 231.250 125.000 235.938 125.000 L 240.625 125.000 240.625 121.875 L 240.625 118.750 239.063 118.750 L 237.500 118.750 237.500 115.625 L 237.500 112.500 234.375 112.500 L 231.250 112.500 231.250 118.750 M150.000 126.563 L 150.000 134.375 153.125 134.375 L 156.250 134.375 156.250 129.688 L 156.250 125.000 157.813 125.000 L 159.375 125.000 159.375 121.875 L 159.375 118.750 154.688 118.750 L 150.000 118.750 150.000 126.563 M245.508 119.141 C 245.375 119.355,244.925 119.531,244.508 119.531 C 243.784 119.531,243.750 119.867,243.750 126.953 L 243.750 134.375 246.875 134.375 L 250.000 134.375 250.000 126.563 L 250.000 118.750 247.875 118.750 C 246.706 118.750,245.641 118.926,245.508 119.141 M103.125 132.813 L 103.125 140.625 106.250 140.625 L 109.375 140.625 109.375 132.813 L 109.375 125.000 106.250 125.000 L 103.125 125.000 103.125 132.813 M291.016 132.813 L 291.016 140.625 294.141 140.625 L 297.266 140.625 297.266 132.813 L 297.266 125.000 294.141 125.000 L 291.016 125.000 291.016 132.813 M84.375 135.938 L 84.375 143.750 87.500 143.750 L 90.625 143.750 90.625 135.938 L 90.625 128.125 87.500 128.125 L 84.375 128.125 84.375 135.938 M309.766 135.938 L 309.766 143.750 312.891 143.750 L 316.016 143.750 316.016 135.938 L 316.016 128.125 312.891 128.125 L 309.766 128.125 309.766 135.938 M46.875 142.188 L 46.875 150.000 50.000 150.000 L 53.125 150.000 53.125 145.313 L 53.125 140.625 54.688 140.625 L 56.250 140.625 56.250 137.500 L 56.250 134.375 51.563 134.375 L 46.875 134.375 46.875 142.188 M59.375 137.500 L 59.375 140.625 62.500 140.625 L 65.625 140.625 65.625 143.750 L 65.625 146.875 68.750 146.875 L 71.875 146.875 71.875 140.625 L 71.875 134.375 65.625 134.375 L 59.375 134.375 59.375 137.500 M328.516 140.625 L 328.516 146.875 331.641 146.875 L 334.766 146.875 334.766 143.750 L 334.766 140.625 337.891 140.625 L 341.016 140.625 341.016 137.500 L 341.016 134.375 334.766 134.375 L 328.516 134.375 328.516 140.625 M344.141 137.500 L 344.141 140.625 345.703 140.625 L 347.266 140.625 347.266 145.313 L 347.266 150.000 350.391 150.000 L 353.516 150.000 353.516 142.188 L 353.516 134.375 348.828 134.375 L 344.141 134.375 344.141 137.500 M150.000 145.313 L 150.000 153.125 153.125 153.125 L 156.250 153.125 156.250 145.313 L 156.250 137.500 153.125 137.500 L 150.000 137.500 150.000 145.313 M243.750 145.313 L 243.750 153.125 246.875 153.125 L 250.000 153.125 250.000 145.313 L 250.000 137.500 246.875 137.500 L 243.750 137.500 243.750 145.313 M103.125 151.563 L 103.125 159.375 106.250 159.375 L 109.375 159.375 109.375 151.563 L 109.375 143.750 106.250 143.750 L 103.125 143.750 103.125 151.563 M291.016 151.563 L 291.016 159.375 294.141 159.375 L 297.266 159.375 297.266 151.563 L 297.266 143.750 294.141 143.750 L 291.016 143.750 291.016 151.563 M84.375 154.688 L 84.375 162.500 87.500 162.500 L 90.625 162.500 90.625 154.688 L 90.625 146.875 87.500 146.875 L 84.375 146.875 84.375 154.688 M309.766 154.688 L 309.766 162.500 312.891 162.500 L 316.016 162.500 316.016 154.688 L 316.016 146.875 312.891 146.875 L 309.766 146.875 309.766 154.688 M65.625 157.813 L 65.625 165.625 68.750 165.625 L 71.875 165.625 71.875 157.813 L 71.875 150.000 68.750 150.000 L 65.625 150.000 65.625 157.813 M328.516 157.813 L 328.516 165.625 331.641 165.625 L 334.766 165.625 334.766 157.813 L 334.766 150.000 331.641 150.000 L 328.516 150.000 328.516 157.813 M46.875 160.938 L 46.875 168.750 50.000 168.750 L 53.125 168.750 53.125 160.938 L 53.125 153.125 50.000 153.125 L 46.875 153.125 46.875 160.938 M347.266 160.938 L 347.266 168.750 350.391 168.750 L 353.516 168.750 353.516 160.938 L 353.516 153.125 350.391 153.125 L 347.266 153.125 347.266 160.938 M150.000 164.063 L 150.000 171.875 153.125 171.875 L 156.250 171.875 156.250 164.063 L 156.250 156.250 153.125 156.250 L 150.000 156.250 150.000 164.063 M243.750 160.938 L 243.750 165.625 242.188 165.625 L 240.625 165.625 240.625 168.750 L 240.625 171.875 245.313 171.875 L 250.000 171.875 250.000 164.063 L 250.000 156.250 246.875 156.250 L 243.750 156.250 243.750 160.938 M103.125 170.313 L 103.125 178.125 106.250 178.125 C 109.098 178.125,109.375 178.057,109.375 177.356 C 109.375 176.874,109.180 176.662,108.852 176.788 C 107.615 177.262,107.396 175.946,108.399 174.061 C 109.289 172.385,109.375 171.798,109.375 167.362 L 109.375 162.500 106.250 162.500 L 103.125 162.500 103.125 170.313 M291.016 170.313 L 291.016 178.125 294.141 178.125 L 297.266 178.125 297.266 170.313 L 297.266 162.500 294.141 162.500 L 291.016 162.500 291.016 170.313 M84.375 173.438 L 84.375 181.250 87.500 181.250 L 90.625 181.250 90.625 184.375 L 90.625 187.500 92.383 187.500 C 93.620 187.500,94.372 187.269,94.922 186.719 C 95.352 186.289,96.143 185.938,96.680 185.938 C 97.396 185.938,97.656 186.146,97.656 186.719 C 97.656 187.465,97.917 187.500,103.516 187.500 L 109.375 187.500 109.375 184.375 L 109.375 181.250 100.000 181.250 L 90.625 181.250 90.625 173.438 L 90.625 165.625 87.500 165.625 L 84.375 165.625 84.375 173.438 M159.375 168.750 L 159.375 171.875 160.938 171.875 L 162.500 171.875 162.500 175.000 L 162.500 178.125 165.625 178.125 L 168.750 178.125 168.750 181.250 L 168.750 184.375 171.875 184.375 L 175.000 184.375 175.000 185.938 L 175.000 187.500 178.125 187.500 L 181.250 187.500 181.250 182.813 L 181.250 178.125 175.000 178.125 L 168.750 178.125 168.750 171.875 L 168.750 165.625 164.063 165.625 L 159.375 165.625 159.375 168.750 M231.250 171.875 L 231.250 178.125 229.688 178.125 L 228.125 178.125 228.125 181.250 L 228.125 184.375 232.813 184.375 L 237.500 184.375 237.500 175.000 L 237.500 165.625 234.375 165.625 L 231.250 165.625 231.250 171.875 M309.766 173.438 L 309.766 181.250 300.391 181.250 L 291.016 181.250 291.016 184.375 L 291.016 187.500 300.391 187.500 L 309.766 187.500 309.766 184.375 L 309.766 181.250 312.891 181.250 L 316.016 181.250 316.016 173.438 L 316.016 165.625 312.891 165.625 L 309.766 165.625 309.766 173.438 M65.625 176.563 L 65.625 184.375 68.750 184.375 L 71.875 184.375 71.875 176.563 L 71.875 168.750 68.750 168.750 L 65.625 168.750 65.625 176.563 M328.516 176.563 L 328.516 184.375 331.641 184.375 L 334.766 184.375 334.766 176.563 L 334.766 168.750 331.641 168.750 L 328.516 168.750 328.516 176.563 M46.875 179.688 L 46.875 187.500 50.000 187.500 L 53.125 187.500 53.125 179.688 L 53.125 171.875 50.000 171.875 L 46.875 171.875 46.875 179.688 M347.266 179.688 L 347.266 187.500 350.391 187.500 L 353.516 187.500 353.516 179.688 L 353.516 171.875 350.391 171.875 L 347.266 171.875 347.266 179.688 M218.750 186.133 L 218.750 191.016 215.625 191.016 L 212.500 191.016 212.500 194.141 L 212.500 197.266 218.750 197.266 L 225.000 197.266 225.000 189.258 L 225.000 181.250 221.875 181.250 L 218.750 181.250 218.750 186.133 M65.625 195.508 L 65.625 203.516 68.750 203.516 L 71.875 203.516 71.875 195.508 L 71.875 187.500 68.750 187.500 L 65.625 187.500 65.625 195.508 M121.875 192.383 L 121.875 197.266 125.000 197.266 L 128.125 197.266 128.125 195.703 L 128.125 194.141 132.813 194.141 L 137.500 194.141 137.500 190.820 L 137.500 187.500 129.688 187.500 L 121.875 187.500 121.875 192.383 M140.625 197.070 L 140.625 206.641 143.750 206.641 L 146.875 206.641 146.875 197.070 L 146.875 187.500 143.750 187.500 L 140.625 187.500 140.625 197.070 M253.125 197.070 L 253.125 206.641 256.250 206.641 L 259.375 206.641 259.375 197.070 L 259.375 187.500 256.250 187.500 L 253.125 187.500 253.125 197.070 M262.500 190.820 L 262.500 194.141 267.383 194.141 L 272.266 194.141 272.266 195.703 L 272.266 197.266 275.391 197.266 L 278.516 197.266 278.516 192.383 L 278.516 187.500 270.508 187.500 L 262.500 187.500 262.500 190.820 M328.516 195.508 L 328.516 203.516 331.641 203.516 L 334.766 203.516 334.766 195.508 L 334.766 187.500 331.641 187.500 L 328.516 187.500 328.516 195.508 M46.875 198.828 L 46.875 206.641 50.000 206.641 L 53.125 206.641 53.125 198.828 L 53.125 191.016 50.000 191.016 L 46.875 191.016 46.875 198.828 M175.000 194.141 L 175.000 197.266 182.813 197.266 L 190.625 197.266 190.625 194.141 L 190.625 191.016 182.813 191.016 L 175.000 191.016 175.000 194.141 M193.750 194.141 L 193.750 197.266 201.563 197.266 L 209.375 197.266 209.375 194.141 L 209.375 191.016 201.563 191.016 L 193.750 191.016 193.750 194.141 M347.266 198.828 L 347.266 206.641 350.391 206.641 L 353.516 206.641 353.516 198.828 L 353.516 191.016 350.391 191.016 L 347.266 191.016 347.266 198.828 M112.500 203.516 L 112.500 206.641 110.938 206.641 L 109.375 206.641 109.375 214.453 L 109.375 222.266 112.500 222.266 L 115.625 222.266 115.625 214.453 L 115.625 206.641 121.875 206.641 L 128.125 206.641 128.125 203.516 L 128.125 200.391 120.313 200.391 L 112.500 200.391 112.500 203.516 M187.500 205.078 L 187.500 209.766 190.625 209.766 L 193.750 209.766 193.750 208.203 L 193.750 206.641 198.438 206.641 L 203.125 206.641 203.125 203.516 L 203.125 200.391 195.313 200.391 L 187.500 200.391 187.500 205.078 M206.250 209.766 L 206.250 219.141 210.938 219.141 L 215.625 219.141 215.625 216.016 L 215.625 212.891 214.063 212.891 L 212.500 212.891 212.500 206.641 L 212.500 200.391 209.375 200.391 L 206.250 200.391 206.250 209.766 M272.266 203.516 L 272.266 206.641 278.516 206.641 L 284.766 206.641 284.766 214.453 L 284.766 222.266 287.891 222.266 L 291.016 222.266 291.016 214.453 L 291.016 206.641 289.453 206.641 L 287.891 206.641 287.891 203.516 L 287.891 200.391 280.078 200.391 L 272.266 200.391 272.266 203.516 M65.625 214.453 L 65.625 222.266 68.750 222.266 L 71.875 222.266 71.875 214.453 L 71.875 206.641 68.750 206.641 L 65.625 206.641 65.625 214.453 M328.516 214.453 C 328.516 223.415,328.260 222.962,332.219 221.010 L 334.766 219.754 334.766 213.197 L 334.766 206.641 331.641 206.641 L 328.516 206.641 328.516 214.453 M46.875 217.578 L 46.875 225.391 50.000 225.391 L 53.125 225.391 53.125 217.578 L 53.125 209.766 50.000 209.766 L 46.875 209.766 46.875 217.578 M140.625 217.578 L 140.625 225.391 143.750 225.391 L 146.875 225.391 146.875 217.578 L 146.875 209.766 143.750 209.766 L 140.625 209.766 140.625 217.578 M253.125 217.578 L 253.125 225.391 256.250 225.391 L 259.375 225.391 259.375 217.578 L 259.375 209.766 256.250 209.766 L 253.125 209.766 253.125 217.578 M347.266 212.266 L 347.266 214.765 350.391 213.578 C 353.441 212.419,353.516 212.360,353.516 211.078 L 353.516 209.766 350.391 209.766 L 347.266 209.766 347.266 212.266 M178.125 216.016 L 178.125 219.141 185.938 219.141 L 193.750 219.141 193.750 216.016 L 193.750 212.891 185.938 212.891 L 178.125 212.891 178.125 216.016 M218.750 220.703 L 218.750 228.516 221.875 228.516 L 225.000 228.516 225.000 220.703 L 225.000 212.891 221.875 212.891 L 218.750 212.891 218.750 220.703 M350.310 216.339 L 347.300 217.773 347.283 221.582 L 347.266 225.391 350.391 225.391 L 353.516 225.391 353.516 220.117 C 353.516 217.217,353.472 214.857,353.418 214.874 C 353.364 214.890,351.966 215.550,350.310 216.339 M175.000 230.078 L 175.000 237.891 178.125 237.891 L 181.250 237.891 181.250 230.078 L 181.250 222.266 178.125 222.266 L 175.000 222.266 175.000 230.078 M65.625 233.203 L 65.625 241.016 68.750 241.016 L 71.875 241.016 71.875 233.203 L 71.875 225.391 68.750 225.391 L 65.625 225.391 65.625 233.203 M109.375 233.203 L 109.375 241.016 112.500 241.016 L 115.625 241.016 115.625 233.203 L 115.625 225.391 112.500 225.391 L 109.375 225.391 109.375 233.203 M284.766 233.203 L 284.766 241.016 287.891 241.016 L 291.016 241.016 291.016 233.203 L 291.016 225.391 287.891 225.391 L 284.766 225.391 284.766 233.203 M329.590 226.005 L 328.516 226.587 328.516 233.802 L 328.516 241.016 331.641 241.016 L 334.766 241.016 334.766 233.203 L 334.766 225.391 332.715 225.406 C 331.587 225.415,330.181 225.684,329.590 226.005 M46.875 236.328 L 46.875 244.141 50.000 244.141 L 53.125 244.141 53.125 247.266 L 53.125 250.391 60.938 250.391 L 68.750 250.391 68.750 247.266 L 68.750 244.141 60.938 244.141 L 53.125 244.141 53.125 236.328 L 53.125 228.516 50.000 228.516 L 46.875 228.516 46.875 236.328 M140.625 236.328 L 140.625 244.141 143.750 244.141 L 146.875 244.141 146.875 236.328 L 146.875 228.516 143.750 228.516 L 140.625 228.516 140.625 236.328 M253.125 236.328 L 253.125 244.141 256.250 244.141 L 259.375 244.141 259.375 236.328 L 259.375 228.516 256.250 228.516 L 253.125 228.516 253.125 236.328 M347.266 236.328 L 347.266 244.141 337.891 244.141 L 328.516 244.141 328.516 247.266 L 328.516 250.391 337.891 250.391 L 347.266 250.391 347.266 247.266 L 347.266 244.141 350.391 244.141 L 353.516 244.141 353.516 236.328 L 353.516 228.516 350.391 228.516 L 347.266 228.516 347.266 236.328 M218.750 239.453 L 218.750 247.266 221.875 247.266 L 225.000 247.266 225.000 239.453 L 225.000 231.641 221.875 231.641 L 218.750 231.641 218.750 239.453 M175.000 248.828 L 175.000 256.641 178.125 256.641 L 181.250 256.641 181.250 248.828 L 181.250 241.016 178.125 241.016 L 175.000 241.016 175.000 248.828 M109.375 251.953 L 109.375 259.766 112.500 259.766 L 115.625 259.766 115.625 251.953 L 115.625 244.141 112.500 244.141 L 109.375 244.141 109.375 251.953 M284.766 251.953 L 284.766 259.766 287.891 259.766 L 291.016 259.766 291.016 251.953 L 291.016 244.141 287.891 244.141 L 284.766 244.141 284.766 251.953 M140.625 255.078 L 140.625 262.891 143.750 262.891 L 146.875 262.891 146.875 255.078 L 146.875 247.266 143.750 247.266 L 140.625 247.266 140.625 255.078 M253.125 255.078 L 253.125 262.891 256.250 262.891 L 259.375 262.891 259.375 255.078 L 259.375 247.266 256.250 247.266 L 253.125 247.266 253.125 255.078 M218.750 258.203 L 218.750 266.016 221.875 266.016 L 225.000 266.016 225.000 258.203 L 225.000 250.391 221.875 250.391 L 218.750 250.391 218.750 258.203 M175.000 267.578 L 175.000 275.391 178.125 275.391 L 181.250 275.391 181.250 267.578 L 181.250 259.766 178.125 259.766 L 175.000 259.766 175.000 267.578 M109.375 270.703 L 109.375 278.516 112.500 278.516 L 115.625 278.516 115.625 270.703 L 115.625 262.891 112.500 262.891 L 109.375 262.891 109.375 270.703 M284.766 270.703 L 284.766 278.516 287.891 278.516 L 291.016 278.516 291.016 270.703 L 291.016 262.891 287.891 262.891 L 284.766 262.891 284.766 270.703 M140.625 273.828 L 140.625 281.641 143.750 281.641 L 146.875 281.641 146.875 273.828 L 146.875 266.016 143.750 266.016 L 140.625 266.016 140.625 273.828 M253.125 273.828 L 253.125 281.641 256.250 281.641 L 259.375 281.641 259.375 273.828 L 259.375 266.016 256.250 266.016 L 253.125 266.016 253.125 273.828 M218.750 276.953 L 218.750 284.766 221.875 284.766 L 225.000 284.766 225.000 276.953 L 225.000 269.141 221.875 269.141 L 218.750 269.141 218.750 276.953 M118.750 275.391 L 118.750 278.516 120.313 278.516 L 121.875 278.516 121.875 281.641 L 121.875 284.766 125.000 284.766 L 128.125 284.766 128.125 278.516 L 128.125 272.266 123.438 272.266 L 118.750 272.266 118.750 275.391 M272.266 278.516 L 272.266 284.766 275.391 284.766 L 278.516 284.766 278.516 281.641 L 278.516 278.516 280.078 278.516 L 281.641 278.516 281.641 275.391 L 281.641 272.266 276.953 272.266 L 272.266 272.266 272.266 278.516 M175.000 286.328 L 175.000 294.141 178.125 294.141 L 181.250 294.141 181.250 286.328 L 181.250 278.516 178.125 278.516 L 175.000 278.516 175.000 286.328 M140.625 292.578 L 140.625 300.391 143.750 300.391 L 146.875 300.391 146.875 292.578 L 146.875 284.766 143.750 284.766 L 140.625 284.766 140.625 292.578 M253.125 292.578 L 253.125 300.391 256.250 300.391 L 259.375 300.391 259.375 292.578 L 259.375 284.766 256.250 284.766 L 253.125 284.766 253.125 292.578 M121.875 295.703 L 121.875 303.516 125.000 303.516 L 128.125 303.516 128.125 295.703 L 128.125 287.891 125.000 287.891 L 121.875 287.891 121.875 295.703 M218.750 292.578 L 218.750 297.266 217.188 297.266 L 215.625 297.266 215.625 300.391 L 215.625 303.516 220.313 303.516 L 225.000 303.516 225.000 295.703 L 225.000 287.891 221.875 287.891 L 218.750 287.891 218.750 292.578 M272.266 295.703 L 272.266 303.516 275.391 303.516 L 278.516 303.516 278.516 295.703 L 278.516 287.891 275.391 287.891 L 272.266 287.891 272.266 295.703 M175.000 300.391 L 175.000 303.516 182.813 303.516 L 190.625 303.516 190.625 300.391 L 190.625 297.266 182.813 297.266 L 175.000 297.266 175.000 300.391 M206.250 305.078 L 206.250 312.891 209.375 312.891 L 212.500 312.891 212.500 305.078 L 212.500 297.266 209.375 297.266 L 206.250 297.266 206.250 305.078 M140.625 311.328 L 140.625 319.141 143.750 319.141 L 146.875 319.141 146.875 311.328 L 146.875 303.516 143.750 303.516 L 140.625 303.516 140.625 311.328 M253.125 311.328 L 253.125 319.141 256.250 319.141 L 259.375 319.141 259.375 311.328 L 259.375 303.516 256.250 303.516 L 253.125 303.516 253.125 311.328 M121.875 314.453 L 121.875 322.266 125.000 322.266 L 128.125 322.266 128.125 314.453 L 128.125 306.641 125.000 306.641 L 121.875 306.641 121.875 314.453 M187.500 314.453 L 187.500 322.266 190.625 322.266 L 193.750 322.266 193.750 314.453 L 193.750 306.641 190.625 306.641 L 187.500 306.641 187.500 314.453 M272.266 314.453 L 272.266 322.266 275.391 322.266 L 278.516 322.266 278.516 314.453 L 278.516 306.641 275.391 306.641 L 272.266 306.641 272.266 314.453 M206.250 323.828 L 206.250 331.641 209.375 331.641 L 212.500 331.641 212.500 323.828 L 212.500 316.016 209.375 316.016 L 206.250 316.016 206.250 323.828 M131.250 325.391 L 131.250 328.516 139.063 328.516 L 146.875 328.516 146.875 325.391 L 146.875 322.266 139.063 322.266 L 131.250 322.266 131.250 325.391 M253.125 325.391 L 253.125 328.516 261.133 328.516 L 269.141 328.516 269.141 325.391 L 269.141 322.266 261.133 322.266 L 253.125 322.266 253.125 325.391 M187.500 333.203 L 187.500 341.016 190.625 341.016 L 193.750 341.016 193.750 333.203 L 193.750 325.391 190.625 325.391 L 187.500 325.391 187.500 333.203 M206.250 342.578 L 206.250 350.391 209.375 350.391 L 212.500 350.391 212.500 342.578 L 212.500 334.766 209.375 334.766 L 206.250 334.766 206.250 342.578 M187.500 351.953 L 187.500 359.766 190.625 359.766 L 193.750 359.766 193.750 351.953 L 193.750 344.141 190.625 344.141 L 187.500 344.141 187.500 351.953 M206.250 361.328 L 206.250 369.141 209.375 369.141 L 212.500 369.141 212.500 361.328 L 212.500 353.516 209.375 353.516 L 206.250 353.516 206.250 361.328 M187.500 372.266 L 187.500 381.641 190.625 381.641 L 193.750 381.641 193.750 372.266 L 193.750 362.891 190.625 362.891 L 187.500 362.891 187.500 372.266 M206.250 373.828 L 206.250 375.391 201.563 375.391 L 196.875 375.391 196.875 378.516 L 196.875 381.641 204.688 381.641 L 212.500 381.641 212.500 376.953 L 212.500 372.266 209.375 372.266 L 206.250 372.266 206.250 373.828 " stroke="none" fill="#fcfcfc" fill-rule="evenodd"></path><path id="path1" d="M219.555 74.985 C 218.894 75.394,219.189 76.719,219.975 76.870 C 220.385 76.949,220.670 76.650,220.791 76.015 C 220.990 74.978,220.383 74.473,219.555 74.985 M295.108 119.931 C 294.055 121.000,293.370 121.875,293.586 121.875 C 294.093 121.875,297.474 118.437,297.218 118.181 C 297.111 118.074,296.162 118.862,295.108 119.931 M108.496 173.817 C 107.727 174.904,107.597 176.383,108.237 176.779 C 108.987 177.242,109.428 176.325,109.302 174.565 L 109.180 172.852 108.496 173.817 M95.130 186.704 C 94.418 187.491,94.426 187.500,95.867 187.500 C 97.040 187.500,97.297 187.368,97.192 186.821 C 97.003 185.840,95.965 185.781,95.130 186.704 M350.195 213.623 C 347.537 214.635,347.458 214.704,347.340 216.121 C 347.193 217.879,346.917 217.871,350.537 216.221 C 353.293 214.965,353.516 214.775,353.516 213.682 C 353.516 212.295,353.677 212.298,350.195 213.623 M332.227 220.978 C 331.152 221.539,330.485 222.070,330.744 222.158 C 331.174 222.305,334.766 220.449,334.766 220.080 C 334.766 219.759,334.133 219.983,332.227 220.978 M328.711 225.781 C 328.404 226.279,329.309 226.279,330.078 225.781 C 330.554 225.473,330.504 225.401,329.808 225.397 C 329.337 225.393,328.844 225.566,328.711 225.781 " stroke="none" fill="#f4f4f4" fill-rule="evenodd"></path><path id="path2" d="M295.923 120.674 L 294.776 121.875 295.838 121.875 C 296.931 121.875,297.430 121.229,297.201 120.111 C 297.097 119.605,296.833 119.722,295.923 120.674 M333.203 221.680 L 332.227 222.238 333.496 222.252 C 334.370 222.261,334.766 222.083,334.766 221.680 C 334.766 220.961,334.461 220.961,333.203 221.680 " stroke="none" fill="#e4e4ea" fill-rule="evenodd"></path><path id="path3" d="M295.501 120.320 C 294.666 121.175,294.159 121.875,294.375 121.875 C 294.881 121.875,297.470 119.215,297.214 118.958 C 297.107 118.852,296.336 119.464,295.501 120.320 M333.008 221.279 C 332.148 221.808,331.571 222.247,331.725 222.253 C 332.269 222.277,334.766 220.945,334.766 220.631 C 334.766 220.195,334.770 220.193,333.008 221.279 " stroke="none" fill="#ececec" fill-rule="evenodd"></path><path id="path4" d="M219.416 74.346 C 219.267 74.735,219.493 74.902,220.164 74.902 C 220.703 74.902,221.062 74.709,220.980 74.463 C 220.758 73.797,219.658 73.715,219.416 74.346 M219.407 77.193 C 219.643 77.808,220.163 77.902,220.480 77.388 C 220.598 77.198,220.358 76.954,219.947 76.846 C 219.423 76.710,219.261 76.813,219.407 77.193 " stroke="none" fill="#f4f4fc" fill-rule="evenodd"></path></g></svg>
